<svg width="24" height="24" viewBox="0 0 24 24" fill="none" xmlns="http://www.w3.org/2000/svg">
<rect width="24" height="24" rx="12" fill="url(#paint0_linear_498_924)"/>
<g clip-path="url(#clip0_498_924)" filter="url(#filter0_i_498_924)">
<path d="M17.9466 8.256C17.5585 8.4232 17.1504 8.53964 16.7325 8.60242C16.9278 8.56889 17.2153 8.21689 17.3298 8.07441C17.5036 7.8595 17.6361 7.61416 17.7205 7.35085C17.7205 7.3313 17.7401 7.30336 17.7205 7.28939C17.7107 7.28401 17.6997 7.28119 17.6884 7.28119C17.6772 7.28119 17.6662 7.28401 17.6563 7.28939C17.2026 7.53535 16.7196 7.72308 16.2189 7.84813C16.2014 7.85346 16.1829 7.85394 16.1652 7.84951C16.1475 7.84508 16.1313 7.83591 16.1184 7.82298C16.0794 7.77653 16.0375 7.73267 15.9928 7.69168C15.7886 7.50854 15.5569 7.35865 15.3062 7.24749C14.9677 7.10852 14.6022 7.04834 14.2371 7.07148C13.8829 7.09387 13.5371 7.18897 13.2211 7.35085C12.91 7.52152 12.6366 7.75339 12.4173 8.03251C12.1866 8.3198 12.02 8.6532 11.9288 9.01029C11.8536 9.34996 11.8451 9.70102 11.9037 10.044C11.9037 10.1026 11.9037 10.111 11.8535 10.1026C9.86334 9.80928 8.23049 9.10248 6.8963 7.58552C6.83769 7.51847 6.80698 7.51847 6.75953 7.58552C6.17896 8.46832 6.46087 9.86516 7.18658 10.5552C7.28428 10.6474 7.38476 10.7368 7.49082 10.8206C7.15809 10.797 6.83348 10.7067 6.53624 10.5552C6.48041 10.5189 6.44971 10.5384 6.44692 10.6055C6.43901 10.6984 6.43901 10.7919 6.44692 10.8848C6.50516 11.3303 6.68056 11.7523 6.95519 12.1077C7.22983 12.4631 7.59383 12.7391 8.00999 12.9075C8.11143 12.951 8.21714 12.9837 8.32539 13.0052C8.01736 13.0659 7.70144 13.0754 7.39034 13.0332C7.32335 13.0192 7.29823 13.0555 7.32335 13.1198C7.73366 14.2373 8.62405 14.5781 9.27719 14.7681C9.36651 14.782 9.45582 14.782 9.55631 14.8044C9.55631 14.8044 9.55631 14.8044 9.53956 14.8211C9.34697 15.1731 8.56822 15.4106 8.21095 15.5335C7.55884 15.768 6.86356 15.8576 6.17338 15.7961C6.06453 15.7794 6.0394 15.7822 6.01149 15.7961C5.98358 15.8101 6.01149 15.8408 6.0422 15.8688C6.18176 15.961 6.32131 16.042 6.46646 16.1202C6.89855 16.3561 7.35535 16.5435 7.82856 16.6789C10.2792 17.355 13.0369 16.8577 14.8763 15.0279C16.3222 13.5919 16.8302 11.6112 16.8302 9.62769C16.8302 9.55227 16.9223 9.50757 16.9753 9.46846C17.3411 9.18319 17.6636 8.8463 17.9327 8.46832C17.9793 8.41198 18.0032 8.34024 17.9997 8.26718C17.9997 8.22527 17.9997 8.23365 17.9466 8.256Z" fill="white"/>
</g>
<defs>
<filter id="filter0_i_498_924" x="6" y="6" width="12" height="12.5" filterUnits="userSpaceOnUse" color-interpolation-filters="sRGB">
<feFlood flood-opacity="0" result="BackgroundImageFix"/>
<feBlend mode="normal" in="SourceGraphic" in2="BackgroundImageFix" result="shape"/>
<feColorMatrix in="SourceAlpha" type="matrix" values="0 0 0 0 0 0 0 0 0 0 0 0 0 0 0 0 0 0 127 0" result="hardAlpha"/>
<feOffset dy="0.5"/>
<feGaussianBlur stdDeviation="1.25"/>
<feComposite in2="hardAlpha" operator="arithmetic" k2="-1" k3="1"/>
<feColorMatrix type="matrix" values="0 0 0 0 0 0 0 0 0 0 0 0 0 0 0 0 0 0 0.1 0"/>
<feBlend mode="normal" in2="shape" result="effect1_innerShadow_498_924"/>
</filter>
<linearGradient id="paint0_linear_498_924" x1="0.487811" y1="1.67723e-07" x2="21.1385" y2="25.854" gradientUnits="userSpaceOnUse">
<stop stop-color="#0CA8F7"/>
<stop offset="1" stop-color="#0096E1"/>
</linearGradient>
<clipPath id="clip0_498_924">
<rect width="12" height="12" fill="white" transform="translate(6 6)"/>
</clipPath>
</defs>
</svg>
