<svg width="24" height="24" viewBox="0 0 24 24" fill="none" xmlns="http://www.w3.org/2000/svg">
<rect width="24" height="24" rx="12" fill="url(#paint0_linear_498_926)"/>
<g filter="url(#filter0_i_498_926)">
<path d="M15.9653 8.23881C17.2528 10.1452 17.8887 12.2955 17.651 14.771C17.65 14.7815 17.6446 14.7911 17.636 14.7975C16.661 15.5184 15.7164 15.956 14.785 16.2462C14.7778 16.2484 14.77 16.2483 14.7628 16.2458C14.7556 16.2434 14.7494 16.2387 14.745 16.2325C14.5298 15.931 14.3343 15.6132 14.163 15.2794C14.1532 15.2597 14.1621 15.236 14.1824 15.2283C14.4929 15.1104 14.7881 14.9692 15.0721 14.802C15.0945 14.7888 15.0959 14.7565 15.0753 14.7411C15.015 14.696 14.9553 14.6486 14.8982 14.6013C14.8875 14.5925 14.8731 14.5908 14.861 14.5967C13.0172 15.4541 10.9974 15.4541 9.13176 14.5967C9.11965 14.5912 9.10526 14.5931 9.09485 14.6017C9.03785 14.6491 8.978 14.696 8.9183 14.7411C8.89763 14.7565 8.89934 14.7888 8.92186 14.802C9.20586 14.9661 9.50112 15.1104 9.8112 15.2288C9.83129 15.2366 9.84084 15.2597 9.83087 15.2794C9.66329 15.6136 9.46778 15.9315 9.24861 16.233C9.23906 16.2452 9.22339 16.2508 9.20857 16.2462C8.28161 15.956 7.33698 15.5184 6.36199 14.7975C6.35387 14.7911 6.34803 14.7811 6.34717 14.7706C6.14853 12.6293 6.55337 10.4612 8.03124 8.23838C8.0348 8.2325 8.04021 8.22791 8.04648 8.22518C8.77366 7.88908 9.55271 7.64182 10.3669 7.5006C10.3818 7.49831 10.3966 7.5052 10.4043 7.5184C10.5049 7.69779 10.6199 7.92783 10.6977 8.11583C11.556 7.9838 12.4276 7.9838 13.3039 8.11583C13.3817 7.93185 13.4927 7.69779 13.5929 7.5184C13.5964 7.51185 13.602 7.5066 13.6087 7.50341C13.6154 7.50021 13.6229 7.49923 13.6302 7.5006C14.4449 7.64225 15.2239 7.88951 15.9505 8.22518C15.9569 8.22791 15.9622 8.2325 15.9653 8.23881ZM11.134 12.3102C11.143 11.6771 10.6847 11.1533 10.1095 11.1533C9.53888 11.1533 9.08502 11.6725 9.08502 12.3102C9.08502 12.9476 9.54786 13.4668 10.1095 13.4668C10.6802 13.4668 11.134 12.9476 11.134 12.3102ZM14.922 12.3102C14.9309 11.6771 14.4727 11.1533 13.8975 11.1533C13.3268 11.1533 12.873 11.6725 12.873 12.3102C12.873 12.9476 13.3358 13.4668 13.8975 13.4668C14.4727 13.4668 14.922 12.9476 14.922 12.3102Z" fill="white"/>
</g>
<defs>
<filter id="filter0_i_498_926" x="6" y="6" width="12" height="12.5" filterUnits="userSpaceOnUse" color-interpolation-filters="sRGB">
<feFlood flood-opacity="0" result="BackgroundImageFix"/>
<feBlend mode="normal" in="SourceGraphic" in2="BackgroundImageFix" result="shape"/>
<feColorMatrix in="SourceAlpha" type="matrix" values="0 0 0 0 0 0 0 0 0 0 0 0 0 0 0 0 0 0 127 0" result="hardAlpha"/>
<feOffset dy="0.5"/>
<feGaussianBlur stdDeviation="1.25"/>
<feComposite in2="hardAlpha" operator="arithmetic" k2="-1" k3="1"/>
<feColorMatrix type="matrix" values="0 0 0 0 0 0 0 0 0 0 0 0 0 0 0 0 0 0 0.1 0"/>
<feBlend mode="normal" in2="shape" result="effect1_innerShadow_498_926"/>
</filter>
<linearGradient id="paint0_linear_498_926" x1="0.487811" y1="1.67723e-07" x2="21.1385" y2="25.854" gradientUnits="userSpaceOnUse">
<stop stop-color="#5260FA"/>
<stop offset="1" stop-color="#5361F9"/>
</linearGradient>
</defs>
</svg>
